HIERARCHY
ROOT Hips
{
	OFFSET 0.000000 0.000000 0.000000
	CHANNELS 6 Xposition Yposition Zposition Zrotation Yrotation Xrotation 
	JOINT LHipJoint
	{
		OFFSET 0.000000 0.000000 0.000000
		CHANNELS 3 Zrotation Yrotation Xrotation
		JOINT LeftUpLeg
		{
			OFFSET 1.363060 -1.794630 0.839290
			CHANNELS 3 Zrotation Yrotation Xrotation
			JOINT LeftLeg
			{
				OFFSET 2.448110 -6.726130 0.000000
				CHANNELS 3 Zrotation Yrotation Xrotation
				JOINT LeftFoot
				{
					OFFSET 2.562200 -7.039590 0.000000
					CHANNELS 3 Zrotation Yrotation Xrotation
					JOINT LeftToeBase
					{
						OFFSET 0.157640 -0.433110 2.322550
						CHANNELS 3 Zrotation Yrotation Xrotation
						End Site
						{
							OFFSET 0.000000 0.000000 0.000000
						}
					}
				}
			}
		}
	}
	JOINT RHipJoint
	{
		OFFSET 0.000000 0.000000 0.000000
		CHANNELS 3 Zrotation Yrotation Xrotation
		JOINT RightUpLeg
		{
			OFFSET -1.305520 -1.794630 0.839290
			CHANNELS 3 Zrotation Yrotation Xrotation
			JOINT RightLeg
			{
				OFFSET -2.542530 -6.985550 0.000000
				CHANNELS 3 Zrotation Yrotation Xrotation
				JOINT RightFoot
				{
					OFFSET -2.568260 -7.056230 0.000000
					CHANNELS 3 Zrotation Yrotation Xrotation
					JOINT RightToeBase
					{
						OFFSET -0.164730 -0.452590 2.363150
						CHANNELS 3 Zrotation Yrotation Xrotation
						End Site
						{
							OFFSET 0.000000 0.000000 0.000000
						}
					}
				}
			}
		}
	}
	JOINT LowerBack
	{
		OFFSET 0.000000 0.000000 0.000000
		CHANNELS 3 Zrotation Yrotation Xrotation
		JOINT Spine
		{
			OFFSET 0.028270 2.035590 -0.193380
			CHANNELS 3 Zrotation Yrotation Xrotation
			JOINT Spine1
			{
				OFFSET 0.056720 2.048850 -0.042750
				CHANNELS 3 Zrotation Yrotation Xrotation
				JOINT Neck
				{
					OFFSET 0.000000 0.000000 0.000000
					CHANNELS 3 Zrotation Yrotation Xrotation
					JOINT Neck1
					{
						OFFSET -0.054170 1.746240 0.172020
						CHANNELS 3 Zrotation Yrotation Xrotation
						JOINT Head
						{
							OFFSET 0.104070 1.761360 -0.123970
							CHANNELS 3 Zrotation Yrotation Xrotation
							End Site
							{
								OFFSET 0.000000 0.000000 0.000000
							}
						}
					}
				}
				JOINT LeftShoulder
				{
					OFFSET 0.000000 0.000000 0.000000
					CHANNELS 3 Zrotation Yrotation Xrotation
					JOINT LeftArm
					{
						OFFSET 3.362410 1.200890 -0.311210
						CHANNELS 3 Zrotation Yrotation Xrotation
						JOINT LeftForeArm
						{
							OFFSET 4.983000 -0.000000 -0.000000
							CHANNELS 3 Zrotation Yrotation Xrotation
							JOINT LeftHand
							{
								OFFSET 3.483560 -0.000000 -0.000000
								CHANNELS 3 Zrotation Yrotation Xrotation
								JOINT LeftFingerBase
								{
									OFFSET 0.000000 0.000000 0.000000
									CHANNELS 3 Zrotation Yrotation Xrotation
									JOINT LeftHandIndex1
									{
										OFFSET 0.715260 -0.000000 -0.000000
										CHANNELS 3 Zrotation Yrotation Xrotation
										End Site
										{
											OFFSET 0.000000 0.000000 0.000000
										}
									}
								}
								JOINT LThumb
								{
									OFFSET 0.000000 0.000000 0.000000
									CHANNELS 3 Zrotation Yrotation Xrotation
									End Site
									{
										OFFSET 0.000000 0.000000 0.000000
									}
								}
							}
						}
					}
				}
				JOINT RightShoulder
				{
					OFFSET 0.000000 0.000000 0.000000
					CHANNELS 3 Zrotation Yrotation Xrotation
					JOINT RightArm
					{
						OFFSET -3.136600 1.374050 -0.404650
						CHANNELS 3 Zrotation Yrotation Xrotation
						JOINT RightForeArm
						{
							OFFSET -5.241900 -0.000000 -0.000000
							CHANNELS 3 Zrotation Yrotation Xrotation
							JOINT RightHand
							{
								OFFSET -3.444170 -0.000000 -0.000000
								CHANNELS 3 Zrotation Yrotation Xrotation
								JOINT RightFingerBase
								{
									OFFSET 0.000000 0.000000 0.000000
									CHANNELS 3 Zrotation Yrotation Xrotation
									JOINT RightHandIndex1
									{
										OFFSET -0.622530 -0.000000 -0.000000
										CHANNELS 3 Zrotation Yrotation Xrotation
										End Site
										{
											OFFSET 0.000000 0.000000 0.000000
										}
									}
								}
								JOINT RThumb
								{
									OFFSET 0.000000 0.000000 0.000000
									CHANNELS 3 Zrotation Yrotation Xrotation
									End Site
									{
										OFFSET 0.000000 0.000000 0.000000
									}
								}
							}
						}
					}
				}
			}
		}
	}
}
MOTION
Frames: 11
Frame Time: 0.008333
7.800059 18.206033 -7.432651 -0.300527 10.223756 -0.651787 -2.412570 1.635555 2.247529 -5.237155 -0.047797 -13.542480 5.674308 14.395877 44.290038 -3.744569 21.182943 8.836378 0.928200 6.137500 17.183900 2.010348 -1.129221 1.632215 20.831159 -3.142703 -10.498154 -1.019728 -8.265677 24.356665 1.656997 -8.422702 -2.850307 -0.079500 -1.819000 5.005600 -2.998496 -0.783996 10.891851 1.302513 -1.215146 0.633891 2.855333 -0.804950 -4.333131 -14.979090 -14.512057 -7.303581 14.493698 -19.735526 15.715148 6.242600 -8.880800 14.143300 -3.866408 -0.329281 -0.903840 -71.652728 3.584305 59.495089 96.526805 -60.892583 -72.357859 -0.087388 -1.929449 8.914003 27.440152 21.474047 11.690600 -7.125000 0.000000 0.000000 -2.156500 56.216200 -0.593400 2.942022 2.194944 -0.542425 73.851129 -2.142129 62.643594 -100.619305 59.411634 -71.899393 0.663495 0.460396 -27.171696 -22.081098 9.809805 -4.043300 7.125000 0.000000 0.000000 2.914900 -19.539300 1.774400 
7.766613 18.205326 -7.368890 -0.468236 9.307689 -0.785579 -2.370377 1.601627 2.212420 -4.997855 -0.611384 -13.671530 5.854090 14.576817 45.160039 -3.040380 18.321351 10.040957 0.695500 5.330900 14.854900 1.996650 -1.126825 1.643445 21.207199 -2.582173 -9.898211 -0.978953 -8.169288 24.114558 1.648289 -8.384182 -2.839136 -0.055700 -1.523200 4.189600 -2.589725 -0.795882 10.685168 1.334550 -1.169589 0.649765 2.668955 -0.784942 -4.204089 -15.084976 -14.441510 -7.275994 14.542405 -19.629342 15.708881 6.314900 -8.849000 14.134200 -3.868617 -0.311583 -0.902457 -71.960023 3.688426 59.521207 96.378080 -60.902846 -72.255404 -0.130614 -1.927927 9.398343 28.103914 21.156654 11.886500 -7.125000 0.000000 0.000000 -1.311700 56.036600 -0.355200 2.937713 2.191825 -0.540974 73.693925 -2.373622 62.314353 -100.985186 59.392894 -72.185534 0.673408 0.439908 -26.251378 -22.015652 9.954377 -4.093900 7.125000 0.000000 0.000000 2.968000 -19.377700 1.817500 
7.728720 18.201587 -7.300279 0.047469 8.571152 -0.984305 -2.387366 1.546686 2.194052 -5.486212 -1.224400 -13.554195 5.960936 14.719589 45.991864 -2.349647 15.049069 10.568294 0.352300 3.813300 10.552000 2.003409 -1.139219 1.671806 20.799787 -2.276691 -9.194435 -0.952261 -8.103570 23.942776 1.609954 -8.232610 -2.909326 -0.057100 -1.542200 4.242100 -2.971397 -0.815041 10.614168 1.268733 -1.251190 0.691943 2.726839 -0.818346 -4.073248 -15.186745 -14.342119 -7.263974 14.549072 -19.487068 15.770439 6.370600 -8.800900 14.136900 -3.881244 -0.295379 -0.900981 -72.271977 3.801893 59.558267 96.284119 -60.915407 -72.179251 -0.170925 -1.929403 9.763440 28.872165 21.086767 12.251600 -7.125000 0.000000 0.000000 -0.425400 56.154500 -0.116400 2.928379 2.184642 -0.538293 73.513622 -2.499276 62.128111 -101.274888 59.379938 -72.410475 0.687964 0.424015 -25.800827 -22.071817 10.331524 -4.267300 7.125000 0.000000 0.000000 2.937300 -18.952700 1.826400 
7.691029 18.187845 -7.253999 -0.531168 7.495686 -1.108596 -2.314350 1.511424 2.162950 -4.840629 -1.637474 -13.897939 6.078776 14.856596 46.735732 -1.670644 11.537695 11.092345 0.098200 2.021300 5.564700 1.972944 -1.122533 1.663479 21.690319 -1.385013 -8.660303 -0.937246 -8.063785 23.885323 1.619559 -8.269802 -3.070332 -0.077600 -1.796800 4.944500 -2.215167 -0.808547 10.578589 1.366543 -1.139088 0.666238 2.487784 -0.763506 -4.115661 -15.078643 -14.244835 -7.351178 14.359578 -19.347171 15.880245 6.302800 -8.743800 14.142100 -3.871489 -0.297115 -0.906149 -72.574850 3.916752 59.596343 96.129256 -60.918483 -72.065507 -0.204151 -1.932417 10.028404 29.512056 20.978838 12.535200 -7.125000 0.000000 0.000000 0.329500 56.202400 0.090500 2.938320 2.180804 -0.546416 73.404596 -2.408714 62.003800 -101.254723 59.377911 -72.373140 0.704781 0.403170 -25.448290 -22.004809 10.911253 -4.500800 7.125000 0.000000 0.000000 3.002400 -18.313000 1.909600 
7.660412 18.179761 -7.188116 -0.611728 6.566354 -1.204271 -2.295554 1.464971 2.143850 -4.772265 -2.138711 -14.018011 6.141339 14.951335 47.347378 -1.071179 8.154606 11.348523 0.044700 1.364500 3.752200 1.959229 -1.115628 1.670504 21.942244 -0.870858 -8.206932 -0.946857 -8.073215 23.962528 1.546012 -7.990362 -3.245156 -0.102100 -2.060700 5.673400 -1.946033 -0.761093 10.450016 1.386532 -1.045040 0.628260 2.349900 -0.709927 -4.146694 -14.981709 -14.149150 -7.156146 14.183498 -19.226630 15.865214 6.241400 -8.715600 14.014600 -3.863342 -0.295310 -0.907561 -72.827268 4.150217 59.826518 95.980429 -60.915712 -71.991923 -0.211484 -1.924903 10.091610 29.346219 20.301630 12.115800 -7.125000 0.000000 0.000000 0.326500 55.411400 0.083500 2.942184 2.168280 -0.554124 73.277545 -2.526050 61.758165 -101.330425 59.371536 -72.422975 0.713931 0.386571 -24.852138 -21.935825 11.156869 -4.590400 7.125000 0.000000 0.000000 3.060300 -18.044100 1.964700 
7.633028 18.171475 -7.115867 -0.500536 5.766711 -1.275082 -2.300381 1.409900 2.120446 -4.936857 -2.662468 -14.118864 6.172466 15.020200 47.851987 -0.525621 4.798060 11.523236 0.054000 1.499800 4.125300 1.953625 -1.108847 1.684512 21.933201 -0.700272 -7.865971 -0.965591 -8.094587 24.073647 1.423107 -7.519115 -3.337938 -0.121600 -2.248400 6.192500 -1.841046 -0.737165 10.223331 1.376621 -1.003357 0.612852 2.244541 -0.682642 -4.070039 -14.926095 -14.059361 -7.013336 14.024269 -19.107263 15.862037 6.193100 -8.686800 13.910900 -3.861861 -0.291577 -0.906869 -73.071737 4.256023 60.025950 95.914235 -60.924524 -71.939079 -0.226783 -1.931244 9.971518 29.827016 20.351207 12.390800 -7.125000 0.000000 0.000000 0.856000 55.592600 0.222600 2.941498 2.153703 -0.557442 73.001050 -2.425411 61.706921 -101.415506 59.370470 -72.493753 0.708837 0.388638 -24.610339 -21.950291 10.895364 -4.483200 7.125000 0.000000 0.000000 3.042700 -18.331000 1.934100 
7.603219 18.157834 -7.045538 -0.376904 4.814136 -1.415389 -2.309541 1.366924 2.109067 -5.137906 -3.042165 -14.145810 6.170755 15.055464 48.203406 -0.060275 1.555057 11.378505 0.030700 1.130200 3.107300 1.945997 -1.102552 1.688026 21.927601 -0.348244 -7.444435 -1.004753 -8.162552 24.319172 1.308534 -7.084020 -3.503534 -0.135700 -2.374000 6.540400 -1.778667 -0.684350 9.997069 1.353460 -0.925041 0.660156 2.129418 -0.642795 -3.863334 -14.903797 -13.948499 -6.981316 13.979376 -18.956141 15.867452 6.204700 -8.630800 13.852300 -3.867559 -0.283547 -0.902563 -73.288157 4.206078 60.191303 95.684382 -60.923106 -71.782113 -0.240784 -1.932215 10.117688 29.952807 20.078482 12.320200 -7.125000 0.000000 0.000000 1.065200 55.326000 0.270000 2.941134 2.140547 -0.555445 72.810019 -2.240858 61.675027 -101.487078 59.374043 -72.548608 0.707690 0.384524 -24.261317 -21.917900 10.789474 -4.431800 7.125000 0.000000 0.000000 3.063800 -18.449000 1.939600 
7.576340 18.140656 -6.972177 -0.047326 3.572565 -1.822230 -2.336768 1.357086 2.139369 -5.594256 -3.157789 -13.839492 6.163648 15.068770 48.476134 0.296917 -1.324885 10.844561 0.001600 0.261500 0.718500 1.936251 -1.118405 1.695493 21.706969 0.083619 -6.707042 -1.050120 -8.245379 24.595137 1.194719 -6.653561 -3.643980 -0.127100 -2.298400 6.331200 -1.975128 -0.492320 10.100149 1.310740 -0.700732 0.730359 2.105620 -0.528328 -3.813551 -14.932818 -13.864610 -6.880716 13.904482 -18.842546 15.903963 6.205100 -8.600200 13.806100 -3.870206 -0.281275 -0.894539 -73.565086 4.246312 60.415501 95.635295 -60.928863 -71.741959 -0.240017 -1.943304 10.035796 30.165635 20.405319 12.599300 -7.125000 0.000000 0.000000 1.220600 55.752200 0.322100 2.940584 2.131805 -0.555526 72.741227 -2.631914 61.220122 -101.953592 59.344660 -72.928118 0.710871 0.364672 -23.487780 -21.714538 10.870397 -4.423300 7.125000 0.000000 0.000000 3.214800 -18.369500 2.041100 
7.541176 18.122063 -6.919835 0.169840 2.974728 -1.957827 -2.373661 1.308078 2.106820 -5.896132 -3.838049 -13.890877 6.144455 15.078395 48.630351 0.563686 -3.681507 10.653636 0.001000 -0.204000 -0.560500 1.940102 -1.110237 1.707012 21.641590 0.351628 -6.405274 -1.092892 -8.321633 24.855110 1.153284 -6.506517 -3.896596 -0.133200 -2.352100 6.479900 -2.065154 -0.526286 10.197637 1.302813 -0.761032 0.737034 2.139864 -0.552972 -3.850317 -15.018376 -13.836527 -6.782065 13.985653 -18.773852 15.706738 6.261100 -8.583700 13.693400 -3.874981 -0.276786 -0.891094 -73.882426 4.135368 60.538893 95.325395 -60.912212 -71.513937 -0.240604 -1.954955 10.106162 30.204844 20.542894 12.694700 -7.125000 0.000000 0.000000 1.224900 55.928000 0.328400 2.936278 2.144268 -0.553436 72.689095 -2.903297 60.664315 -102.467363 59.309048 -73.354589 0.706781 0.346986 -22.892316 -21.343312 10.833719 -4.329500 7.125000 0.000000 0.000000 3.483800 -18.431700 2.207700 
7.504900 18.106198 -6.858903 0.139412 2.381378 -2.124238 -2.394147 1.276771 2.077769 -5.964048 -4.458274 -13.931170 6.122669 15.078989 48.698893 0.761240 -5.612255 10.470668 0.005600 -0.483700 -1.329000 1.935997 -1.102296 1.715499 21.848575 0.579293 -6.020948 -1.131476 -8.383317 25.086593 1.075461 -6.226748 -4.231133 -0.162100 -2.594100 7.150700 -1.899292 -0.599400 10.195372 1.324227 -0.834033 0.761309 2.100014 -0.589509 -3.816014 -15.240055 -13.754670 -6.431349 14.311184 -18.634494 15.312844 6.471300 -8.551100 13.463600 -3.878371 -0.260312 -0.882466 -74.122400 4.020103 60.637580 95.035839 -60.898559 -71.302610 -0.244403 -1.963131 10.331645 30.206842 20.627951 12.742000 -7.125000 0.000000 0.000000 1.199300 56.033100 0.324600 2.936233 2.160600 -0.540365 72.622711 -2.923032 60.383485 -102.680589 59.296864 -73.524260 0.709690 0.331183 -22.419719 -21.148400 10.989030 -4.351600 7.125000 0.000000 0.000000 3.629300 -18.271800 2.313100 
7.466704 18.091647 -6.790595 0.165835 1.920467 -2.354338 -2.425108 1.253929 2.055296 -6.115128 -5.171242 -13.844240 6.101582 15.073396 48.740927 0.906020 -7.251040 10.217529 0.009500 -0.629500 -1.729800 1.934949 -1.105443 1.733871 22.011660 0.758249 -5.523398 -1.166021 -8.436831 25.286647 1.030810 -6.081217 -4.592363 -0.172100 -2.672700 7.368700 -1.822182 -0.708493 10.239668 1.334216 -0.971009 0.745698 2.095082 -0.652216 -3.880020 -15.405266 -13.590142 -6.066562 14.429472 -18.414326 15.214318 6.613700 -8.492200 13.317300 -3.877117 -0.248826 -0.879208 -74.310511 4.178186 60.780622 94.999966 -60.902832 -71.293753 -0.267146 -1.955341 10.504090 30.453056 20.166124 12.633600 -7.125000 0.000000 0.000000 1.595700 55.577800 0.414300 2.934024 2.163568 -0.535888 72.536326 -3.082438 60.243368 -102.887855 59.279537 -73.681194 0.721753 0.315983 -22.009461 -21.212846 11.349315 -4.513300 7.125000 0.000000 0.000000 3.592700 -17.868500 2.321600 
